<svg xmlns="http://www.w3.org/2000/svg" viewBox="0 0 216.75 214.05"><defs><style>.cls-1{fill:#38799e;stroke:#38799e;}.cls-1,.cls-2,.cls-3{stroke-miterlimit:10;}.cls-2{fill:#4c3372;stroke:#4c3372;}.cls-3{fill:#523186;stroke:#523186;}</style></defs><title>Recurso 11</title><g id="Capa_2" data-name="Capa 2"><g id="Capa_1-2" data-name="Capa 1"><path class="cls-1" d="M216.21,109.28c-4.34,47.29-34.66,86.29-75.33,100.1V190.79c26.51-10.81,47.18-34.45,55.55-63.92l-59.88,0-6.49,12.76L127.35,145l-17.48,34.35-1.49,2.94v0L101,196.85,93.21,212.1l-.71,1.39c-2-.31-3.88-.67-5.79-1.1C40.71,202.3,5.28,160.69.55,109.32H75.87v17.58l-55.53,0c9.1,32,32.73,57.15,62.58,66.4l42.8-84h90.49Z"/><circle class="cls-1" cx="66.58" cy="152.07" r="12.23"/><line class="cls-1" x1="31.27" y1="152.07" x2="31.27" y2="152.07"/><circle class="cls-1" cx="155.95" cy="152.07" r="12.23"/><path class="cls-2" d="M108.38.5A108.36,108.36,0,0,0,.55,98.06L216.2,98A108.37,108.37,0,0,0,108.38.5Zm0,16.25a92.14,92.14,0,0,1,88,65l-176.1,0A92.14,92.14,0,0,1,108.38,16.75Z"/><circle class="cls-3" cx="108.37" cy="47.36" r="12.23"/></g></g></svg>