<svg xmlns="http://www.w3.org/2000/svg" viewBox="0 0 479.78 214.05"><defs><style>.cls-1{fill:#523186;stroke:#523186;}.cls-1,.cls-2,.cls-3{stroke-miterlimit:10;}.cls-2,.cls-4{fill:#38799e;}.cls-2{stroke:#38799e;}.cls-3{fill:#4c3372;stroke:#4c3372;}</style></defs><title>Recurso 3</title><g id="Capa_2" data-name="Capa 2"><g id="Capa_1-2" data-name="Capa 1"><line class="cls-1" x1="216.47" y1="98.02" x2="216.2" y2="98.02"/><line class="cls-1" x1="0.55" y1="98.06" x2="0.54" y2="98.06"/><path class="cls-2" d="M216.21,109.28c-4.34,47.29-34.66,86.29-75.33,100.1V190.79c26.51-10.81,47.18-34.45,55.55-63.92l-59.88,0-6.49,12.76L127.35,145l-17.48,34.35-1.49,2.94v0L101,196.85,93.21,212.1l-.71,1.39c-2-.31-3.88-.67-5.79-1.1C40.71,202.3,5.28,160.69.55,109.32H75.87v17.58l-55.53,0c9.1,32,32.73,57.15,62.58,66.4l42.8-84h90.49Z"/><circle class="cls-2" cx="66.58" cy="152.07" r="12.23"/><line class="cls-2" x1="31.27" y1="152.07" x2="31.27" y2="152.07"/><circle class="cls-2" cx="155.95" cy="152.07" r="12.23"/><path class="cls-3" d="M108.38.5A108.36,108.36,0,0,0,.55,98.06L216.2,98A108.37,108.37,0,0,0,108.38.5Zm0,16.25a92.14,92.14,0,0,1,88,65l-176.1,0A92.14,92.14,0,0,1,108.38,16.75Z"/><circle class="cls-1" cx="108.37" cy="47.36" r="12.23"/><line class="cls-2" x1="234.87" y1="184.78" x2="479.78" y2="184.78"/><path class="cls-4" d="M236.36,209.17a1.48,1.48,0,0,1-.35-1V198a1.44,1.44,0,0,1,.35-1,1.19,1.19,0,0,1,.93-.38,1.21,1.21,0,0,1,.93.38,1.44,1.44,0,0,1,.34,1v10.11a1.47,1.47,0,0,1-.34,1,1.21,1.21,0,0,1-.93.38A1.19,1.19,0,0,1,236.36,209.17Z"/><path class="cls-4" d="M253.81,197a1.49,1.49,0,0,1,.33,1v10.11a1.53,1.53,0,0,1-.33,1,1.12,1.12,0,0,1-.88.39,1.15,1.15,0,0,1-1-.47l-5.48-7.73v6.79a1.52,1.52,0,0,1-.32,1,1.14,1.14,0,0,1-1.72,0,1.53,1.53,0,0,1-.33-1V198a1.49,1.49,0,0,1,.33-1,1.12,1.12,0,0,1,.88-.39,1.08,1.08,0,0,1,.93.47l5.48,7.68V198a1.49,1.49,0,0,1,.33-1,1.06,1.06,0,0,1,.85-.39A1.12,1.12,0,0,1,253.81,197Z"/><path class="cls-4" d="M269.35,202.71a1,1,0,0,1,.27.76V207a4.55,4.55,0,0,1-.1,1.11,1.39,1.39,0,0,1-.37.64,2.32,2.32,0,0,1-.79.39,8.47,8.47,0,0,1-1.46.35,11,11,0,0,1-1.57.12,6.18,6.18,0,0,1-3.17-.78,5.26,5.26,0,0,1-2.06-2.26,7.83,7.83,0,0,1-.72-3.48,7.91,7.91,0,0,1,.71-3.46,5.15,5.15,0,0,1,2-2.26,5.87,5.87,0,0,1,3.09-.79,5.48,5.48,0,0,1,3.76,1.3,1.23,1.23,0,0,1,.35.43,1.37,1.37,0,0,1,.1.54,1.33,1.33,0,0,1-.24.8.71.71,0,0,1-.57.34.92.92,0,0,1-.38-.08,1.8,1.8,0,0,1-.42-.23,5.58,5.58,0,0,0-1.26-.67,3.87,3.87,0,0,0-1.26-.2c-2.22,0-3.34,1.43-3.34,4.28a5.18,5.18,0,0,0,.87,3.28,3.16,3.16,0,0,0,2.62,1.08,6.73,6.73,0,0,0,1.88-.27v-2.8h-1.51a1,1,0,0,1-.73-.25,1.13,1.13,0,0,1,0-1.44,1,1,0,0,1,.73-.25h2.8A1,1,0,0,1,269.35,202.71Z"/><path class="cls-4" d="M275.36,209.1a1.46,1.46,0,0,1-.31-1V198.05a1.46,1.46,0,0,1,.31-1,1.18,1.18,0,0,1,.89-.34H282c.81,0,1.21.36,1.21,1.08s-.4,1.1-1.21,1.1h-4.5v3h4.17c.81,0,1.21.36,1.21,1.1s-.4,1.08-1.21,1.08h-4.17v3.19H282c.81,0,1.21.36,1.21,1.1s-.4,1.08-1.21,1.08h-5.79A1.18,1.18,0,0,1,275.36,209.1Z"/><path class="cls-4" d="M297.71,197a1.49,1.49,0,0,1,.33,1v10.11a1.53,1.53,0,0,1-.33,1,1.12,1.12,0,0,1-.88.39,1.15,1.15,0,0,1-.95-.47l-5.48-7.73v6.79a1.52,1.52,0,0,1-.32,1,1.14,1.14,0,0,1-1.72,0,1.53,1.53,0,0,1-.33-1V198a1.49,1.49,0,0,1,.33-1,1.12,1.12,0,0,1,.88-.39,1.08,1.08,0,0,1,.93.47l5.48,7.68V198a1.49,1.49,0,0,1,.33-1,1.06,1.06,0,0,1,.85-.39A1.12,1.12,0,0,1,297.71,197Z"/><path class="cls-4" d="M304,209.17a1.47,1.47,0,0,1-.34-1V198a1.44,1.44,0,0,1,.34-1,1.34,1.34,0,0,1,1.87,0,1.48,1.48,0,0,1,.34,1v10.11a1.52,1.52,0,0,1-.34,1,1.34,1.34,0,0,1-1.87,0Z"/><path class="cls-4" d="M312,209.1a1.46,1.46,0,0,1-.31-1V198.05a1.46,1.46,0,0,1,.31-1,1.17,1.17,0,0,1,.89-.34h5.79c.81,0,1.21.36,1.21,1.08s-.4,1.1-1.21,1.1h-4.5v3h4.17c.81,0,1.21.36,1.21,1.1s-.4,1.08-1.21,1.08h-4.17v3.19h4.5c.81,0,1.21.36,1.21,1.1s-.4,1.08-1.21,1.08h-5.79A1.17,1.17,0,0,1,312,209.1Z"/><path class="cls-4" d="M334.4,208.43a1,1,0,0,1-.37.83,1.23,1.23,0,0,1-.86.32,1.2,1.2,0,0,1-.6-.16,1.31,1.31,0,0,1-.49-.5l-2.16-3.54a2.09,2.09,0,0,0-.59-.67,1.39,1.39,0,0,0-.79-.21h-1.32v3.64a1.47,1.47,0,0,1-.34,1,1.15,1.15,0,0,1-.91.38,1.21,1.21,0,0,1-.93-.38,1.47,1.47,0,0,1-.34-1V198.05a1.41,1.41,0,0,1,.31-1,1.16,1.16,0,0,1,.88-.34H330a4.35,4.35,0,0,1,3.07,1,3.74,3.74,0,0,1,1,2.84,3.93,3.93,0,0,1-.74,2.44,3.53,3.53,0,0,1-2.08,1.28,2.05,2.05,0,0,1,.88.42,3.59,3.59,0,0,1,.74.91l1.25,2.05A1.53,1.53,0,0,1,334.4,208.43ZM331.21,202a2,2,0,0,0,0-2.66,2.44,2.44,0,0,0-1.59-.41h-2.43v3.49h2.43A2.44,2.44,0,0,0,331.21,202Z"/><path class="cls-4" d="M339.78,209.17a1.52,1.52,0,0,1-.34-1V198a1.48,1.48,0,0,1,.34-1,1.34,1.34,0,0,1,1.87,0,1.44,1.44,0,0,1,.34,1v10.11a1.47,1.47,0,0,1-.34,1,1.34,1.34,0,0,1-1.87,0Zm.92-13.43a.56.56,0,0,1-.4-.17.58.58,0,0,1-.17-.41.73.73,0,0,1,.21-.47l1.41-1.53a1.1,1.1,0,0,1,.8-.41.85.85,0,0,1,.63.29,1,1,0,0,1,.27.7.93.93,0,0,1-.16.52,1.38,1.38,0,0,1-.49.43l-1.79,1A.62.62,0,0,1,340.7,195.74Z"/><path class="cls-4" d="M358.44,208.3a1.16,1.16,0,0,1-.37.86,1.22,1.22,0,0,1-.84.35,1,1,0,0,1-.59-.19,1.11,1.11,0,0,1-.43-.57l-.86-2.12H349.8l-.87,2.12a1.16,1.16,0,0,1-.42.57,1,1,0,0,1-.59.19,1.26,1.26,0,0,1-.86-.35,1.12,1.12,0,0,1-.37-.86,1.49,1.49,0,0,1,.13-.57l4.42-10.22a1.37,1.37,0,0,1,.54-.66,1.42,1.42,0,0,1,.77-.23,1.38,1.38,0,0,1,.78.24,1.49,1.49,0,0,1,.56.65l4.42,10.22A1.7,1.7,0,0,1,358.44,208.3Zm-7.78-3.8h3.82l-1.9-4.69Z"/><path class="cls-4" d="M381.84,208.3a1.16,1.16,0,0,1-.37.86,1.22,1.22,0,0,1-.84.35,1,1,0,0,1-.59-.19,1.11,1.11,0,0,1-.43-.57l-.87-2.12H373.2l-.87,2.12a1.16,1.16,0,0,1-.42.57,1,1,0,0,1-.59.19,1.26,1.26,0,0,1-.86-.35,1.12,1.12,0,0,1-.37-.86,1.49,1.49,0,0,1,.13-.57l4.42-10.22a1.37,1.37,0,0,1,.54-.66,1.42,1.42,0,0,1,.77-.23,1.38,1.38,0,0,1,.78.24,1.49,1.49,0,0,1,.56.65l4.42,10.22A1.7,1.7,0,0,1,381.84,208.3Zm-7.78-3.8h3.82l-1.9-4.69Z"/><path class="cls-4" d="M388.51,208.81a5.2,5.2,0,0,1-2-2.27,9,9,0,0,1,0-6.92,5.17,5.17,0,0,1,2-2.26,6,6,0,0,1,6.68.51,1.19,1.19,0,0,1,.34.43,1.21,1.21,0,0,1,.1.54,1.33,1.33,0,0,1-.24.8.71.71,0,0,1-.58.34,1.24,1.24,0,0,1-.4-.07,1.4,1.4,0,0,1-.38-.22,5.23,5.23,0,0,0-1.21-.68,3.4,3.4,0,0,0-1.2-.21,2.74,2.74,0,0,0-2.36,1.08,5.33,5.33,0,0,0-.8,3.2c0,2.86,1.06,4.29,3.16,4.29a3.17,3.17,0,0,0,1.15-.21,6.69,6.69,0,0,0,1.26-.68,1.88,1.88,0,0,1,.41-.22,1,1,0,0,1,.37-.07.71.71,0,0,1,.58.34,1.33,1.33,0,0,1,.24.8,1.18,1.18,0,0,1-.44,1,6,6,0,0,1-6.68.51Z"/><path class="cls-4" d="M401.76,208.22a5.73,5.73,0,0,1-1.27-4V198a1.44,1.44,0,0,1,.34-1,1.2,1.2,0,0,1,.92-.38,1.18,1.18,0,0,1,.91.38,1.48,1.48,0,0,1,.33,1v6.29a3.65,3.65,0,0,0,.63,2.31,2.5,2.5,0,0,0,3.66,0,3.6,3.6,0,0,0,.64-2.3V198a1.48,1.48,0,0,1,.33-1,1.18,1.18,0,0,1,.91-.38,1.2,1.2,0,0,1,.92.38,1.44,1.44,0,0,1,.34,1v6.16a5.72,5.72,0,0,1-1.27,4,5.62,5.62,0,0,1-7.39,0Zm3.67-12.48a.58.58,0,0,1-.57-.58.73.73,0,0,1,.21-.47l1.41-1.53a1.1,1.1,0,0,1,.8-.41.85.85,0,0,1,.63.29,1,1,0,0,1,.27.7.93.93,0,0,1-.16.52,1.38,1.38,0,0,1-.49.43l-1.79,1A.62.62,0,0,1,405.43,195.74Z"/><path class="cls-4" d="M417.67,209.27a4.71,4.71,0,0,1-1.81-1,1.16,1.16,0,0,1-.36-.42,1.35,1.35,0,0,1-.1-.57,1.28,1.28,0,0,1,.25-.79.72.72,0,0,1,.58-.35,1,1,0,0,1,.35.07,1.71,1.71,0,0,1,.42.22,5.1,5.1,0,0,0,1.42.71,5,5,0,0,0,1.59.23,2.83,2.83,0,0,0,1.65-.4,1.27,1.27,0,0,0,.58-1.13,1,1,0,0,0-.54-.9,6.13,6.13,0,0,0-1.89-.65,9.93,9.93,0,0,1-2.42-.83,3.29,3.29,0,0,1-1.33-1.21,3.41,3.41,0,0,1-.42-1.75,3.62,3.62,0,0,1,.6-2,4.12,4.12,0,0,1,1.65-1.43,5.43,5.43,0,0,1,2.38-.51,5.72,5.72,0,0,1,3.83,1.28,1.26,1.26,0,0,1,.35.44,1.4,1.4,0,0,1-.14,1.34.74.74,0,0,1-.58.35.93.93,0,0,1-.34-.06,1.85,1.85,0,0,1-.43-.23,6.52,6.52,0,0,0-1.24-.71,3.89,3.89,0,0,0-1.43-.23,2.59,2.59,0,0,0-1.57.42,1.38,1.38,0,0,0-.57,1.17,1.11,1.11,0,0,0,.22.71,1.78,1.78,0,0,0,.73.49,9.46,9.46,0,0,0,1.47.45,7.82,7.82,0,0,1,3.2,1.39,2.93,2.93,0,0,1,1,2.33,3.56,3.56,0,0,1-.58,2,3.77,3.77,0,0,1-1.64,1.37,5.69,5.69,0,0,1-2.44.49A8.41,8.41,0,0,1,417.67,209.27Z"/><path class="cls-4" d="M432.62,209.15a1.4,1.4,0,0,1-.35-1V199h-2.65c-.81,0-1.22-.38-1.22-1.15s.41-1.14,1.22-1.14h7.85c.81,0,1.21.38,1.21,1.14s-.4,1.15-1.21,1.15h-2.65v9.12a1.48,1.48,0,0,1-.34,1,1.21,1.21,0,0,1-.94.38A1.2,1.2,0,0,1,432.62,209.15Z"/><path class="cls-4" d="M443.39,209.17a1.47,1.47,0,0,1-.34-1V198a1.44,1.44,0,0,1,.34-1,1.34,1.34,0,0,1,1.87,0,1.44,1.44,0,0,1,.34,1v10.11a1.47,1.47,0,0,1-.34,1,1.34,1.34,0,0,1-1.87,0Z"/><path class="cls-4" d="M453.49,208.81a5.13,5.13,0,0,1-2-2.27,9,9,0,0,1,0-6.92,5.11,5.11,0,0,1,2-2.26,5.94,5.94,0,0,1,6.67.51,1.23,1.23,0,0,1,.35.43,1.37,1.37,0,0,1,.1.54,1.33,1.33,0,0,1-.24.8.71.71,0,0,1-.58.34,1.19,1.19,0,0,1-.4-.07,1.44,1.44,0,0,1-.39-.22,5,5,0,0,0-1.21-.68,3.35,3.35,0,0,0-1.19-.21,2.75,2.75,0,0,0-2.37,1.08,5.33,5.33,0,0,0-.79,3.2q0,4.29,3.16,4.29a3.12,3.12,0,0,0,1.14-.21,6.69,6.69,0,0,0,1.26-.68,2.13,2.13,0,0,1,.41-.22,1.12,1.12,0,0,1,.38-.07.71.71,0,0,1,.58.34,1.33,1.33,0,0,1,.24.8,1.28,1.28,0,0,1-.11.55,1.19,1.19,0,0,1-.34.42,5.94,5.94,0,0,1-6.67.51Z"/><path class="cls-4" d="M476.25,208.3a1.12,1.12,0,0,1-.37.86,1.18,1.18,0,0,1-.84.35,1,1,0,0,1-.59-.19,1.11,1.11,0,0,1-.43-.57l-.86-2.12h-5.55l-.87,2.12a1.09,1.09,0,0,1-.41.57,1,1,0,0,1-.6.19,1.22,1.22,0,0,1-.85-.35,1.13,1.13,0,0,1-.38-.86,1.49,1.49,0,0,1,.13-.57l4.42-10.22a1.37,1.37,0,0,1,.54-.66,1.41,1.41,0,0,1,1.56,0,1.54,1.54,0,0,1,.55.65l4.42,10.22A1.49,1.49,0,0,1,476.25,208.3Zm-7.77-3.8h3.81l-1.9-4.69Z"/><path class="cls-2" d="M235.26,157.81a2.1,2.1,0,0,1,1.75-.76,2.76,2.76,0,0,1,1.67.76c.43.4.92.84,1.46,1.32a10.61,10.61,0,0,0,1.88,1.31,10.27,10.27,0,0,0,2.44,1,11.7,11.7,0,0,0,3.17.39,9.25,9.25,0,0,0,6.43-2.26,7.26,7.26,0,0,0,2.53-5.65,8.4,8.4,0,0,0-2.24-6.12,27.26,27.26,0,0,0-7.12-4.76,45.34,45.34,0,0,1-5.58-3.23,21,21,0,0,1-4.27-3.82,15,15,0,0,1-2.73-4.81,18.46,18.46,0,0,1-.94-6.16,15.43,15.43,0,0,1,1.06-5.61,14.33,14.33,0,0,1,3.09-4.8,15.6,15.6,0,0,1,4.93-3.36,17.48,17.48,0,0,1,14.41.6,23.25,23.25,0,0,1,5.25,3.9,2.3,2.3,0,0,1,0,3.58l-1.88,2a1.93,1.93,0,0,1-3.25,0,19.75,19.75,0,0,0-3.26-2.38,8.9,8.9,0,0,0-4.8-1.37,8.51,8.51,0,0,0-3.3.64,9,9,0,0,0-2.6,1.66,7.51,7.51,0,0,0-1.71,2.34A6.46,6.46,0,0,0,241,125a9.62,9.62,0,0,0,.53,3.31A8.05,8.05,0,0,0,243.2,131a13.31,13.31,0,0,0,2.85,2.34,32.12,32.12,0,0,0,4.27,2.21,46.74,46.74,0,0,1,5.94,3.23,20.51,20.51,0,0,1,4.4,3.78,14.68,14.68,0,0,1,2.72,4.76,18.52,18.52,0,0,1,.94,6.17,14.88,14.88,0,0,1-1.3,6.12,16.12,16.12,0,0,1-3.58,5.05,18,18,0,0,1-5.34,3.49,16.1,16.1,0,0,1-6.47,1.32c-3.69,0-6.58-.59-8.67-1.75a20.19,20.19,0,0,1-5.49-4.46,2.62,2.62,0,0,1-.73-1.7,2.35,2.35,0,0,1,.73-1.87Z"/><path class="cls-2" d="M317.23,149.9a21.46,21.46,0,0,1-1.43,7.95,17.86,17.86,0,0,1-4,6.17,18.48,18.48,0,0,1-6.06,4,20.91,20.91,0,0,1-15.3,0,18.42,18.42,0,0,1-6.07-4,17.86,17.86,0,0,1-4-6.17A21.46,21.46,0,0,1,279,149.9V129.51a21.46,21.46,0,0,1,1.42-7.95,17.86,17.86,0,0,1,4-6.17,18.42,18.42,0,0,1,6.07-4,21,21,0,0,1,15.3,0,18.48,18.48,0,0,1,6.06,4,17.86,17.86,0,0,1,4,6.17,21.46,21.46,0,0,1,1.43,7.95Zm-7.74-20.39a12.5,12.5,0,0,0-2.93-8.5q-2.93-3.41-8.46-3.41T289.63,121a12.55,12.55,0,0,0-2.93,8.5V149.9a12.55,12.55,0,0,0,2.93,8.5q2.94,3.4,8.47,3.41t8.46-3.41a12.5,12.5,0,0,0,2.93-8.5Z"/><path class="cls-2" d="M366.47,168.6a2.61,2.61,0,0,1-1.83-.63,8.5,8.5,0,0,1-1.43-1.91l-20.67-37.83c-.27-.45-.56-.62-.86-.51s-.44.4-.44.85v37.49a2.63,2.63,0,0,1-.65,1.87,2.4,2.4,0,0,1-1.8.67H336a2.4,2.4,0,0,1-1.8-.67,2.63,2.63,0,0,1-.65-1.87V113.35a2.63,2.63,0,0,1,.65-1.87,2.4,2.4,0,0,1,1.8-.67h3.17a3.51,3.51,0,0,1,3.5,2.12l19.78,36a.73.73,0,0,0,.77.42c.3-.06.45-.31.45-.76v-35.2a2.63,2.63,0,0,1,.65-1.87,2.38,2.38,0,0,1,1.79-.67h2.85a2.36,2.36,0,0,1,1.79.67,2.58,2.58,0,0,1,.65,1.87v52.71a2.58,2.58,0,0,1-.65,1.87,2.36,2.36,0,0,1-1.79.67Z"/><path class="cls-2" d="M425.16,168.6a2.43,2.43,0,0,1-1.84.6,4.69,4.69,0,0,1-1.91-.6l-23.68-14.45a.87.87,0,0,0-1,0,1.74,1.74,0,0,0-.61.86l-3.34,11.55a2.58,2.58,0,0,1-2.77,2h-4c-1.57,0-2.14-.79-1.7-2.37l16.27-53.13a3.3,3.3,0,0,1,1.1-1.83,3.22,3.22,0,0,1,1.83-.46h5.7a2.64,2.64,0,0,1,2.93,2.29l15.55,50.83A2.78,2.78,0,0,1,427,167Zm-18-47c-.17-.62-.44-.93-.82-.93s-.65.31-.81.93L399.11,144a2.47,2.47,0,0,0-.08,1.66,1.93,1.93,0,0,0,.81.89l15.3,9.35c.6.4,1,.44,1.31.13a1.09,1.09,0,0,0,.24-1.06Z"/><path class="cls-2" d="M471.88,168.6a3.21,3.21,0,0,1-3-2.29l-9.6-21.59a1.74,1.74,0,0,0-1.71-1.19h-7.73c-.55,0-.82.28-.82.85v21.68a2.58,2.58,0,0,1-.65,1.87,2.36,2.36,0,0,1-1.79.67h-2.85a2.38,2.38,0,0,1-1.79-.67,2.63,2.63,0,0,1-.65-1.87V113.35a2.63,2.63,0,0,1,.65-1.87,2.38,2.38,0,0,1,1.79-.67H460.4a15.22,15.22,0,0,1,6.1,1.23,14.94,14.94,0,0,1,4.93,3.4,15.64,15.64,0,0,1,3.25,5.14,17.07,17.07,0,0,1,1.18,6.38,16.46,16.46,0,0,1-2.21,8.58,15.53,15.53,0,0,1-5.6,5.69c-.87.52-1.06,1.34-.57,2.47l9.77,21.85a2.37,2.37,0,0,1,.08,2.16,1.78,1.78,0,0,1-1.71.89Zm-12-32.72a8.06,8.06,0,0,0,5.78-2.46,9.3,9.3,0,0,0,2.52-6.46,8.69,8.69,0,0,0-.69-3.53,8.38,8.38,0,0,0-1.83-2.68,7.92,7.92,0,0,0-2.65-1.7,8.33,8.33,0,0,0-3.13-.59h-10c-.54,0-.81.28-.81.85V135c0,.57.27.85.81.85Z"/><path class="cls-3" d="M276.55,73.54a25.45,25.45,0,0,1-1.67,9.35,21,21,0,0,1-4.69,7.25,21.85,21.85,0,0,1-7.14,4.7,24.67,24.67,0,0,1-18,0,22,22,0,0,1-7.14-4.7,21,21,0,0,1-4.69-7.25,25.45,25.45,0,0,1-1.67-9.35v-24a25.41,25.41,0,0,1,1.67-9.35,20.87,20.87,0,0,1,4.69-7.25,21.8,21.8,0,0,1,7.14-4.7,24.67,24.67,0,0,1,18,0,21.7,21.7,0,0,1,7.14,4.7,20.87,20.87,0,0,1,4.69,7.25,25.41,25.41,0,0,1,1.67,9.35Zm-9.09-24a14.76,14.76,0,0,0-3.45-10q-3.45-4-10-4t-10,4a14.76,14.76,0,0,0-3.45,10v24a14.77,14.77,0,0,0,3.45,10q3.45,4,10,4t10-4a14.77,14.77,0,0,0,3.45-10Z"/><path class="cls-3" d="M337.36,95.54a3,3,0,0,1-2.15-.75,9.49,9.49,0,0,1-1.68-2.25L309.21,48c-.32-.54-.66-.74-1-.6s-.52.46-.52,1v44.1a3.07,3.07,0,0,1-.77,2.2,2.79,2.79,0,0,1-2.11.8h-3.35a2.78,2.78,0,0,1-2.1-.8,3,3,0,0,1-.77-2.2v-62a3,3,0,0,1,.77-2.2,2.74,2.74,0,0,1,2.1-.8h3.74A4.13,4.13,0,0,1,309.3,30l23.27,42.3a.88.88,0,0,0,.91.5c.35-.07.53-.37.53-.9V30.54a3,3,0,0,1,.77-2.2,2.74,2.74,0,0,1,2.1-.8h3.35a2.75,2.75,0,0,1,2.11.8,3,3,0,0,1,.77,2.2v62a3.07,3.07,0,0,1-.77,2.2,2.79,2.79,0,0,1-2.11.8Z"/><path class="cls-3" d="M369,95.54a2.77,2.77,0,0,1-2.1-.8,3,3,0,0,1-.77-2.2v-62a3,3,0,0,1,.77-2.2,2.73,2.73,0,0,1,2.1-.8h16.76a24.23,24.23,0,0,1,9.62,1.85A21.73,21.73,0,0,1,407.5,42a26.4,26.4,0,0,1,1.68,9.5v20A26.44,26.44,0,0,1,407.5,81a21.73,21.73,0,0,1-12.16,12.65,24.41,24.41,0,0,1-9.62,1.85Zm31.12-44a17.79,17.79,0,0,0-1.05-6.3,13.32,13.32,0,0,0-3-4.75,12.43,12.43,0,0,0-4.55-3,16.07,16.07,0,0,0-5.79-1h-9.58c-.64,0-.95.33-.95,1v48c0,.66.31,1,.95,1h9.58a16.29,16.29,0,0,0,5.79-1,12.56,12.56,0,0,0,7.52-7.6,18.16,18.16,0,0,0,1.05-6.4Z"/><path class="cls-3" d="M474.39,95.54a2.91,2.91,0,0,1-2.15.7,5.43,5.43,0,0,1-2.25-.7l-27.87-17a1,1,0,0,0-1.2,0,1.92,1.92,0,0,0-.71,1l-3.93,13.6a3.05,3.05,0,0,1-3.26,2.4h-4.69c-1.85,0-2.52-.94-2-2.8l19.15-62.5a3.13,3.13,0,0,1,3.45-2.7h6.7a3.11,3.11,0,0,1,3.45,2.7L477.36,90a3.27,3.27,0,0,1-.76,3.6Zm-21.16-55.3c-.19-.74-.51-1.1-1-1.1s-.76.36-1,1.1l-7.56,26.4a3,3,0,0,0-.1,2,2.36,2.36,0,0,0,1,1l18,11c.71.46,1.22.51,1.54.15a1.3,1.3,0,0,0,.28-1.25Z"/></g></g></svg>